<?xml version="1.0" encoding="UTF-8"?>
<svg width="1024" height="1024" viewBox="0 0 1024 1024" xmlns="http://www.w3.org/2000/svg">
  <defs>
    <radialGradient id="bg" cx="50%" cy="50%" r="55%">
      <stop offset="0%" stop-color="#130828"/>
      <stop offset="100%" stop-color="#09090b"/>
    </radialGradient>

    <clipPath id="iconClip">
      <rect width="1024" height="1024" rx="232"/>
    </clipPath>

    <filter id="ambGlow" x="-50%" y="-50%" width="200%" height="200%"><feGaussianBlur stdDeviation="60"/></filter>
    <filter id="extTraceGlow" x="-60%" y="-60%" width="220%" height="220%">
      <feGaussianBlur in="SourceGraphic" stdDeviation="8" result="b"/>
      <feMerge><feMergeNode in="b"/><feMergeNode in="SourceGraphic"/></feMerge>
    </filter>
    <filter id="extNodeGlow" x="-200%" y="-200%" width="500%" height="500%">
      <feGaussianBlur in="SourceGraphic" stdDeviation="10" result="b"/>
      <feMerge><feMergeNode in="b"/><feMergeNode in="SourceGraphic"/></feMerge>
    </filter>
    <filter id="traceGlow" x="-100%" y="-100%" width="300%" height="300%">
      <feGaussianBlur in="SourceGraphic" stdDeviation="20" result="halo"/>
      <feGaussianBlur in="SourceGraphic" stdDeviation="6" result="body"/>
      <feMerge><feMergeNode in="halo"/><feMergeNode in="halo"/><feMergeNode in="body"/></feMerge>
    </filter>
    <filter id="nodeGlow" x="-300%" y="-300%" width="700%" height="700%">
      <feGaussianBlur in="SourceGraphic" stdDeviation="24" result="halo"/>
      <feGaussianBlur in="SourceGraphic" stdDeviation="7" result="body"/>
      <feMerge><feMergeNode in="halo"/><feMergeNode in="halo"/><feMergeNode in="body"/></feMerge>
    </filter>
  </defs>

  <rect width="1024" height="1024" rx="232" fill="url(#bg)"/>

  <g clip-path="url(#iconClip)">

    <!-- Ambient centre glow -->
    <circle cx="512" cy="505" r="320" fill="#6d28d9" opacity="0.16" filter="url(#ambGlow)"/>

    <!-- External circuit traces routing from icon edges to the bubble border -->
    <g fill="none" stroke-width="8" stroke-linecap="round" stroke-linejoin="round" filter="url(#extTraceGlow)">
      <!-- TOP: 3 traces arriving at bubble top edge (y=263) -->
      <path d="M 340 0 L 340 200 L 440 200 L 440 263" stroke="#67e8f9"/>
      <path d="M 512 0 L 512 263"                     stroke="#a78bfa"/>
      <path d="M 670 0 L 670 200 L 590 200 L 590 263" stroke="#fbbf24"/>
      <!-- LEFT: 2 traces arriving at bubble left edge (x=189) -->
      <path d="M 0 420 L 110 420 L 110 480 L 189 480" stroke="#34d399"/>
      <path d="M 0 580 L 189 580"                     stroke="#fb7185"/>
      <!-- RIGHT: 2 traces arriving at bubble right edge (x=835) -->
      <path d="M 1024 400 L 920 400 L 920 460 L 835 460" stroke="#67e8f9"/>
      <path d="M 1024 600 L 835 600"                     stroke="#fbbf24"/>
      <!-- BOTTOM-LEFT: trace arriving at bubble bottom (y=747, left of tail) -->
      <path d="M 290 1024 L 290 840 L 340 840 L 340 747" stroke="#34d399"/>
      <!-- BOTTOM-RIGHT: trace arriving at bubble bottom (y=747, right of tail) -->
      <path d="M 730 1024 L 730 840 L 700 840 L 700 747" stroke="#fb7185"/>
    </g>

    <!-- Via nodes at external trace bends -->
    <g filter="url(#extNodeGlow)">
      <circle cx="340" cy="200" r="8" fill="#67e8f9"/><circle cx="440" cy="200" r="8" fill="#67e8f9"/>
      <circle cx="670" cy="200" r="8" fill="#fbbf24"/><circle cx="590" cy="200" r="8" fill="#fbbf24"/>
      <circle cx="110" cy="420" r="8" fill="#34d399"/><circle cx="110" cy="480" r="8" fill="#34d399"/>
      <circle cx="920" cy="400" r="8" fill="#67e8f9"/><circle cx="920" cy="460" r="8" fill="#67e8f9"/>
      <circle cx="290" cy="840" r="8" fill="#34d399"/><circle cx="340" cy="840" r="8" fill="#34d399"/>
      <circle cx="730" cy="840" r="8" fill="#fb7185"/><circle cx="700" cy="840" r="8" fill="#fb7185"/>
    </g>

    <!-- Single speech bubble, dark fill so circuitry pops inside it -->
    <path d="M 189 348 Q 189 263 274 263 L 750 263 Q 835 263 835 348
             L 835 662 Q 835 747 750 747 L 680 747 L 618 899 L 556 747
             L 274 747 Q 189 747 189 662 Z"
          fill="#170f30"/>
    <path d="M 189 348 Q 189 263 274 263 L 750 263 Q 835 263 835 348
             L 835 662 Q 835 747 750 747 L 680 747 L 618 899 L 556 747
             L 274 747 Q 189 747 189 662 Z"
          fill="none" stroke="white" stroke-width="24" stroke-opacity="0.85" stroke-linejoin="round"/>

    <!-- Colored connection pads where external traces meet the bubble border -->
    <g filter="url(#extNodeGlow)">
      <circle cx="440" cy="263" r="14" fill="#67e8f9"/>
      <circle cx="512" cy="263" r="14" fill="#a78bfa"/>
      <circle cx="590" cy="263" r="14" fill="#fbbf24"/>
      <circle cx="189" cy="480" r="14" fill="#34d399"/>
      <circle cx="189" cy="580" r="14" fill="#fb7185"/>
      <circle cx="835" cy="460" r="14" fill="#67e8f9"/>
      <circle cx="835" cy="600" r="14" fill="#fbbf24"/>
      <circle cx="340" cy="747" r="14" fill="#34d399"/>
      <circle cx="700" cy="747" r="14" fill="#fb7185"/>
    </g>

    <!-- Cartoon circuit traces: bold dark outline pass underneath, flat bright colour on top -->
    <g fill="none" stroke="#0b0716" stroke-width="24" stroke-linecap="round" stroke-linejoin="round">
      <path d="M 487 475 L 487 420 L 400 420 L 400 380 L 340 380"/>
      <path d="M 467 505 L 284 505"/>
      <path d="M 537 475 L 537 420 L 624 420 L 624 380 L 684 380"/>
      <path d="M 557 505 L 700 505 L 700 520 L 740 520"/>
      <path d="M 537 535 L 537 580 L 620 580 L 620 650"/>
      <path d="M 487 535 L 487 580 L 404 580 L 404 650"/>
    </g>
    <path d="M 487 475 L 487 420 L 400 420 L 400 380 L 340 380" fill="none" stroke="#67e8f9"
          stroke-width="13" stroke-linecap="round" stroke-linejoin="round" filter="url(#traceGlow)"/>
    <path d="M 467 505 L 284 505" fill="none" stroke="#67e8f9"
          stroke-width="13" stroke-linecap="round" stroke-linejoin="round" filter="url(#traceGlow)"/>
    <path d="M 537 475 L 537 420 L 624 420 L 624 380 L 684 380" fill="none" stroke="#fbbf24"
          stroke-width="13" stroke-linecap="round" stroke-linejoin="round" filter="url(#traceGlow)"/>
    <path d="M 557 505 L 700 505 L 700 520 L 740 520" fill="none" stroke="#fbbf24"
          stroke-width="13" stroke-linecap="round" stroke-linejoin="round" filter="url(#traceGlow)"/>
    <path d="M 537 535 L 537 580 L 620 580 L 620 650" fill="none" stroke="#fb7185"
          stroke-width="13" stroke-linecap="round" stroke-linejoin="round" filter="url(#traceGlow)"/>
    <path d="M 487 535 L 487 580 L 404 580 L 404 650" fill="none" stroke="#34d399"
          stroke-width="13" stroke-linecap="round" stroke-linejoin="round" filter="url(#traceGlow)"/>

    <!-- Bold zigzag resistor on the left trace -->
    <g transform="translate(355,505)">
      <rect x="-30" y="-13" width="60" height="26" rx="6" fill="#241a44" stroke="#0b0716" stroke-width="6"/>
      <path d="M -18 -7 L -10 7 L 0 -7 L 10 7 L 18 -7" fill="none" stroke="#67e8f9" stroke-width="5" stroke-linecap="round" stroke-linejoin="round" filter="url(#traceGlow)"/>
    </g>

    <!-- Chunky via nodes at trace bends -->
    <circle cx="400" cy="420" r="15" fill="#c4b5fd" stroke="#0b0716" stroke-width="6" filter="url(#nodeGlow)"/>
    <circle cx="624" cy="420" r="15" fill="#c4b5fd" stroke="#0b0716" stroke-width="6" filter="url(#nodeGlow)"/>
    <circle cx="700" cy="505" r="15" fill="#c4b5fd" stroke="#0b0716" stroke-width="6" filter="url(#nodeGlow)"/>
    <circle cx="537" cy="580" r="15" fill="#c4b5fd" stroke="#0b0716" stroke-width="6" filter="url(#nodeGlow)"/>
    <circle cx="487" cy="580" r="15" fill="#c4b5fd" stroke="#0b0716" stroke-width="6" filter="url(#nodeGlow)"/>

    <!-- Bold round endpoint nodes -->
    <circle cx="340" cy="380" r="28" fill="#67e8f9" stroke="#0b0716" stroke-width="8" filter="url(#nodeGlow)"/>
    <circle cx="284" cy="505" r="28" fill="#67e8f9" stroke="#0b0716" stroke-width="8" filter="url(#nodeGlow)"/>
    <circle cx="684" cy="380" r="28" fill="#fbbf24" stroke="#0b0716" stroke-width="8" filter="url(#nodeGlow)"/>
    <circle cx="740" cy="520" r="28" fill="#fbbf24" stroke="#0b0716" stroke-width="8" filter="url(#nodeGlow)"/>
    <circle cx="620" cy="650" r="28" fill="#fb7185" stroke="#0b0716" stroke-width="8" filter="url(#nodeGlow)"/>
    <circle cx="404" cy="650" r="28" fill="#34d399" stroke="#0b0716" stroke-width="8" filter="url(#nodeGlow)"/>

    <!-- Central chip, bold flat colour with thick outline and stubby pins -->
    <rect x="467" y="475" width="90" height="60" rx="14" fill="#a78bfa" stroke="#0b0716" stroke-width="8" filter="url(#nodeGlow)"/>
    <rect x="479" y="463" width="14" height="14" rx="4" fill="#a78bfa" stroke="#0b0716" stroke-width="6"/>
    <rect x="531" y="463" width="14" height="14" rx="4" fill="#a78bfa" stroke="#0b0716" stroke-width="6"/>
    <rect x="479" y="547" width="14" height="14" rx="4" fill="#a78bfa" stroke="#0b0716" stroke-width="6"/>
    <rect x="531" y="547" width="14" height="14" rx="4" fill="#a78bfa" stroke="#0b0716" stroke-width="6"/>

  </g>
</svg>
